<mxfile host="app.diagrams.net" modified="2024-04-25T15:07:13.169Z" agent="Mozilla/5.0 (Macintosh; Intel Mac OS X 10_15_7) AppleWebKit/537.36 (KHTML, like Gecko) Chrome/123.0.0.0 Safari/537.36" etag="1hLlJEBn0hy8tyfSWNxW" version="22.0.0" type="device" pages="2">
  <diagram name="Models" id="qY8TvXbZnKOkte3jlt84">
    <mxGraphModel dx="2628" dy="1662" grid="1" gridSize="10" guides="1" tooltips="1" connect="1" arrows="1" fold="1" page="1" pageScale="1" pageWidth="850" pageHeight="1100" math="0" shadow="0">
      <root>
        <mxCell id="0" />
        <mxCell id="1" parent="0" />
        <mxCell id="TI52GT8X87rSwYOpcyu7-6" value="User" style="swimlane;fontStyle=0;childLayout=stackLayout;horizontal=1;startSize=26;horizontalStack=0;resizeParent=1;resizeParentMax=0;resizeLast=0;collapsible=1;marginBottom=0;align=center;fontSize=14;" vertex="1" parent="1">
          <mxGeometry x="1130" y="130" width="160" height="146" as="geometry" />
        </mxCell>
        <mxCell id="TI52GT8X87rSwYOpcyu7-7" value="Id - uuid" style="text;strokeColor=none;fillColor=none;spacingLeft=4;spacingRight=4;overflow=hidden;rotatable=0;points=[[0,0.5],[1,0.5]];portConstraint=eastwest;fontSize=12;whiteSpace=wrap;html=1;" vertex="1" parent="TI52GT8X87rSwYOpcyu7-6">
          <mxGeometry y="26" width="160" height="30" as="geometry" />
        </mxCell>
        <mxCell id="TI52GT8X87rSwYOpcyu7-21" value="Name" style="text;strokeColor=none;fillColor=none;spacingLeft=4;spacingRight=4;overflow=hidden;rotatable=0;points=[[0,0.5],[1,0.5]];portConstraint=eastwest;fontSize=12;whiteSpace=wrap;html=1;" vertex="1" parent="TI52GT8X87rSwYOpcyu7-6">
          <mxGeometry y="56" width="160" height="30" as="geometry" />
        </mxCell>
        <mxCell id="TI52GT8X87rSwYOpcyu7-8" value="Email" style="text;strokeColor=none;fillColor=none;spacingLeft=4;spacingRight=4;overflow=hidden;rotatable=0;points=[[0,0.5],[1,0.5]];portConstraint=eastwest;fontSize=12;whiteSpace=wrap;html=1;" vertex="1" parent="TI52GT8X87rSwYOpcyu7-6">
          <mxGeometry y="86" width="160" height="30" as="geometry" />
        </mxCell>
        <mxCell id="TI52GT8X87rSwYOpcyu7-9" value="Password hash" style="text;strokeColor=none;fillColor=none;spacingLeft=4;spacingRight=4;overflow=hidden;rotatable=0;points=[[0,0.5],[1,0.5]];portConstraint=eastwest;fontSize=12;whiteSpace=wrap;html=1;" vertex="1" parent="TI52GT8X87rSwYOpcyu7-6">
          <mxGeometry y="116" width="160" height="30" as="geometry" />
        </mxCell>
        <mxCell id="TI52GT8X87rSwYOpcyu7-10" value="User invitation" style="swimlane;fontStyle=0;childLayout=stackLayout;horizontal=1;startSize=26;horizontalStack=0;resizeParent=1;resizeParentMax=0;resizeLast=0;collapsible=1;marginBottom=0;align=center;fontSize=14;" vertex="1" parent="1">
          <mxGeometry x="1330" y="130" width="160" height="146" as="geometry">
            <mxRectangle x="810" y="110" width="130" height="30" as="alternateBounds" />
          </mxGeometry>
        </mxCell>
        <mxCell id="TI52GT8X87rSwYOpcyu7-11" value="Email" style="text;strokeColor=none;fillColor=none;spacingLeft=4;spacingRight=4;overflow=hidden;rotatable=0;points=[[0,0.5],[1,0.5]];portConstraint=eastwest;fontSize=12;whiteSpace=wrap;html=1;" vertex="1" parent="TI52GT8X87rSwYOpcyu7-10">
          <mxGeometry y="26" width="160" height="30" as="geometry" />
        </mxCell>
        <mxCell id="TI52GT8X87rSwYOpcyu7-13" value="Token" style="text;strokeColor=none;fillColor=none;spacingLeft=4;spacingRight=4;overflow=hidden;rotatable=0;points=[[0,0.5],[1,0.5]];portConstraint=eastwest;fontSize=12;whiteSpace=wrap;html=1;" vertex="1" parent="TI52GT8X87rSwYOpcyu7-10">
          <mxGeometry y="56" width="160" height="30" as="geometry" />
        </mxCell>
        <mxCell id="TI52GT8X87rSwYOpcyu7-34" value="Status" style="text;strokeColor=none;fillColor=none;spacingLeft=4;spacingRight=4;overflow=hidden;rotatable=0;points=[[0,0.5],[1,0.5]];portConstraint=eastwest;fontSize=12;whiteSpace=wrap;html=1;" vertex="1" parent="TI52GT8X87rSwYOpcyu7-10">
          <mxGeometry y="86" width="160" height="30" as="geometry" />
        </mxCell>
        <mxCell id="TI52GT8X87rSwYOpcyu7-15" value="Invited at" style="text;strokeColor=none;fillColor=none;spacingLeft=4;spacingRight=4;overflow=hidden;rotatable=0;points=[[0,0.5],[1,0.5]];portConstraint=eastwest;fontSize=12;whiteSpace=wrap;html=1;" vertex="1" parent="TI52GT8X87rSwYOpcyu7-10">
          <mxGeometry y="116" width="160" height="30" as="geometry" />
        </mxCell>
        <mxCell id="TI52GT8X87rSwYOpcyu7-16" value="User space" style="swimlane;fontStyle=0;childLayout=stackLayout;horizontal=1;startSize=26;horizontalStack=0;resizeParent=1;resizeParentMax=0;resizeLast=0;collapsible=1;marginBottom=0;align=center;fontSize=14;" vertex="1" parent="1">
          <mxGeometry x="580" y="120" width="160" height="146" as="geometry" />
        </mxCell>
        <mxCell id="TI52GT8X87rSwYOpcyu7-20" value="Id - uuid" style="text;strokeColor=none;fillColor=none;spacingLeft=4;spacingRight=4;overflow=hidden;rotatable=0;points=[[0,0.5],[1,0.5]];portConstraint=eastwest;fontSize=12;whiteSpace=wrap;html=1;" vertex="1" parent="TI52GT8X87rSwYOpcyu7-16">
          <mxGeometry y="26" width="160" height="30" as="geometry" />
        </mxCell>
        <mxCell id="TI52GT8X87rSwYOpcyu7-17" value="Name" style="text;strokeColor=none;fillColor=none;spacingLeft=4;spacingRight=4;overflow=hidden;rotatable=0;points=[[0,0.5],[1,0.5]];portConstraint=eastwest;fontSize=12;whiteSpace=wrap;html=1;" vertex="1" parent="TI52GT8X87rSwYOpcyu7-16">
          <mxGeometry y="56" width="160" height="30" as="geometry" />
        </mxCell>
        <mxCell id="TI52GT8X87rSwYOpcyu7-18" value="Owner user" style="text;strokeColor=none;fillColor=none;spacingLeft=4;spacingRight=4;overflow=hidden;rotatable=0;points=[[0,0.5],[1,0.5]];portConstraint=eastwest;fontSize=12;whiteSpace=wrap;html=1;" vertex="1" parent="TI52GT8X87rSwYOpcyu7-16">
          <mxGeometry y="86" width="160" height="30" as="geometry" />
        </mxCell>
        <mxCell id="TI52GT8X87rSwYOpcyu7-19" value="Password hash" style="text;strokeColor=none;fillColor=none;spacingLeft=4;spacingRight=4;overflow=hidden;rotatable=0;points=[[0,0.5],[1,0.5]];portConstraint=eastwest;fontSize=12;whiteSpace=wrap;html=1;" vertex="1" parent="TI52GT8X87rSwYOpcyu7-16">
          <mxGeometry y="116" width="160" height="30" as="geometry" />
        </mxCell>
        <mxCell id="TI52GT8X87rSwYOpcyu7-22" value="" style="edgeStyle=entityRelationEdgeStyle;fontSize=12;html=1;endArrow=ERmany;rounded=0;entryX=0;entryY=0.5;entryDx=0;entryDy=0;exitX=1;exitY=0.5;exitDx=0;exitDy=0;" edge="1" parent="1" source="TI52GT8X87rSwYOpcyu7-20" target="TI52GT8X87rSwYOpcyu7-25">
          <mxGeometry width="100" height="100" relative="1" as="geometry">
            <mxPoint x="410" y="480" as="sourcePoint" />
            <mxPoint x="510" y="380" as="targetPoint" />
          </mxGeometry>
        </mxCell>
        <mxCell id="TI52GT8X87rSwYOpcyu7-24" value="User space relation" style="swimlane;fontStyle=0;childLayout=stackLayout;horizontal=1;startSize=26;horizontalStack=0;resizeParent=1;resizeParentMax=0;resizeLast=0;collapsible=1;marginBottom=0;align=center;fontSize=14;fillColor=#fff2cc;strokeColor=#d6b656;" vertex="1" parent="1">
          <mxGeometry x="830" y="180" width="160" height="86" as="geometry" />
        </mxCell>
        <mxCell id="TI52GT8X87rSwYOpcyu7-25" value="User space id" style="text;strokeColor=none;fillColor=none;spacingLeft=4;spacingRight=4;overflow=hidden;rotatable=0;points=[[0,0.5],[1,0.5]];portConstraint=eastwest;fontSize=12;whiteSpace=wrap;html=1;" vertex="1" parent="TI52GT8X87rSwYOpcyu7-24">
          <mxGeometry y="26" width="160" height="30" as="geometry" />
        </mxCell>
        <mxCell id="TI52GT8X87rSwYOpcyu7-26" value="User id" style="text;strokeColor=none;fillColor=none;spacingLeft=4;spacingRight=4;overflow=hidden;rotatable=0;points=[[0,0.5],[1,0.5]];portConstraint=eastwest;fontSize=12;whiteSpace=wrap;html=1;" vertex="1" parent="TI52GT8X87rSwYOpcyu7-24">
          <mxGeometry y="56" width="160" height="30" as="geometry" />
        </mxCell>
        <mxCell id="TI52GT8X87rSwYOpcyu7-29" value="" style="edgeStyle=entityRelationEdgeStyle;fontSize=12;html=1;endArrow=ERmany;rounded=0;entryX=1;entryY=0.5;entryDx=0;entryDy=0;exitX=0;exitY=0.5;exitDx=0;exitDy=0;" edge="1" parent="1" source="TI52GT8X87rSwYOpcyu7-7" target="TI52GT8X87rSwYOpcyu7-26">
          <mxGeometry width="100" height="100" relative="1" as="geometry">
            <mxPoint x="1030" y="300" as="sourcePoint" />
            <mxPoint x="860" y="400" as="targetPoint" />
          </mxGeometry>
        </mxCell>
        <mxCell id="TI52GT8X87rSwYOpcyu7-35" value="Media" style="swimlane;fontStyle=0;childLayout=stackLayout;horizontal=1;startSize=26;horizontalStack=0;resizeParent=1;resizeParentMax=0;resizeLast=0;collapsible=1;marginBottom=0;align=center;fontSize=14;" vertex="1" parent="1">
          <mxGeometry x="720" y="430" width="160" height="56" as="geometry" />
        </mxCell>
        <mxCell id="TI52GT8X87rSwYOpcyu7-36" value="id - uuid" style="text;strokeColor=none;fillColor=none;spacingLeft=4;spacingRight=4;overflow=hidden;rotatable=0;points=[[0,0.5],[1,0.5]];portConstraint=eastwest;fontSize=12;whiteSpace=wrap;html=1;" vertex="1" parent="TI52GT8X87rSwYOpcyu7-35">
          <mxGeometry y="26" width="160" height="30" as="geometry" />
        </mxCell>
        <mxCell id="TI52GT8X87rSwYOpcyu7-40" value="User media relation" style="swimlane;fontStyle=0;childLayout=stackLayout;horizontal=1;startSize=26;horizontalStack=0;resizeParent=1;resizeParentMax=0;resizeLast=0;collapsible=1;marginBottom=0;align=center;fontSize=14;fillColor=#fff2cc;strokeColor=#d6b656;" vertex="1" parent="1">
          <mxGeometry x="950" y="416" width="160" height="88" as="geometry" />
        </mxCell>
        <mxCell id="TI52GT8X87rSwYOpcyu7-41" value="User id" style="text;strokeColor=none;fillColor=none;spacingLeft=4;spacingRight=4;overflow=hidden;rotatable=0;points=[[0,0.5],[1,0.5]];portConstraint=eastwest;fontSize=12;whiteSpace=wrap;html=1;" vertex="1" parent="TI52GT8X87rSwYOpcyu7-40">
          <mxGeometry y="26" width="160" height="30" as="geometry" />
        </mxCell>
        <mxCell id="TI52GT8X87rSwYOpcyu7-42" value="Media id" style="text;strokeColor=none;fillColor=none;spacingLeft=4;spacingRight=4;overflow=hidden;rotatable=0;points=[[0,0.5],[1,0.5]];portConstraint=eastwest;fontSize=12;whiteSpace=wrap;html=1;" vertex="1" parent="TI52GT8X87rSwYOpcyu7-40">
          <mxGeometry y="56" width="160" height="32" as="geometry" />
        </mxCell>
        <mxCell id="TI52GT8X87rSwYOpcyu7-43" value="" style="edgeStyle=entityRelationEdgeStyle;fontSize=12;html=1;endArrow=ERmany;rounded=0;entryX=1;entryY=0.5;entryDx=0;entryDy=0;exitX=0;exitY=0.5;exitDx=0;exitDy=0;" edge="1" parent="1" source="TI52GT8X87rSwYOpcyu7-7" target="TI52GT8X87rSwYOpcyu7-41">
          <mxGeometry width="100" height="100" relative="1" as="geometry">
            <mxPoint x="1070" y="181" as="sourcePoint" />
            <mxPoint x="1000" y="261" as="targetPoint" />
          </mxGeometry>
        </mxCell>
        <mxCell id="TI52GT8X87rSwYOpcyu7-44" value="" style="edgeStyle=entityRelationEdgeStyle;fontSize=12;html=1;endArrow=ERmany;rounded=0;entryX=0;entryY=0.5;entryDx=0;entryDy=0;exitX=1;exitY=0.5;exitDx=0;exitDy=0;" edge="1" parent="1" source="TI52GT8X87rSwYOpcyu7-36" target="TI52GT8X87rSwYOpcyu7-42">
          <mxGeometry width="100" height="100" relative="1" as="geometry">
            <mxPoint x="1200" y="227" as="sourcePoint" />
            <mxPoint x="1120" y="467" as="targetPoint" />
          </mxGeometry>
        </mxCell>
        <mxCell id="TI52GT8X87rSwYOpcyu7-46" value="Album" style="swimlane;fontStyle=0;childLayout=stackLayout;horizontal=1;startSize=26;horizontalStack=0;resizeParent=1;resizeParentMax=0;resizeLast=0;collapsible=1;marginBottom=0;align=center;fontSize=14;" vertex="1" parent="1">
          <mxGeometry x="210" y="325" width="160" height="56" as="geometry" />
        </mxCell>
        <mxCell id="TI52GT8X87rSwYOpcyu7-47" value="id - uuid" style="text;strokeColor=none;fillColor=none;spacingLeft=4;spacingRight=4;overflow=hidden;rotatable=0;points=[[0,0.5],[1,0.5]];portConstraint=eastwest;fontSize=12;whiteSpace=wrap;html=1;" vertex="1" parent="TI52GT8X87rSwYOpcyu7-46">
          <mxGeometry y="26" width="160" height="30" as="geometry" />
        </mxCell>
        <mxCell id="TI52GT8X87rSwYOpcyu7-48" value="Media album relation" style="swimlane;fontStyle=0;childLayout=stackLayout;horizontal=1;startSize=26;horizontalStack=0;resizeParent=1;resizeParentMax=0;resizeLast=0;collapsible=1;marginBottom=0;align=center;fontSize=14;fillColor=#fff2cc;strokeColor=#d6b656;" vertex="1" parent="1">
          <mxGeometry x="440" y="325" width="160" height="86" as="geometry" />
        </mxCell>
        <mxCell id="TI52GT8X87rSwYOpcyu7-50" value="Album id" style="text;strokeColor=none;fillColor=none;spacingLeft=4;spacingRight=4;overflow=hidden;rotatable=0;points=[[0,0.5],[1,0.5]];portConstraint=eastwest;fontSize=12;whiteSpace=wrap;html=1;" vertex="1" parent="TI52GT8X87rSwYOpcyu7-48">
          <mxGeometry y="26" width="160" height="30" as="geometry" />
        </mxCell>
        <mxCell id="TI52GT8X87rSwYOpcyu7-49" value="Media id" style="text;strokeColor=none;fillColor=none;spacingLeft=4;spacingRight=4;overflow=hidden;rotatable=0;points=[[0,0.5],[1,0.5]];portConstraint=eastwest;fontSize=12;whiteSpace=wrap;html=1;" vertex="1" parent="TI52GT8X87rSwYOpcyu7-48">
          <mxGeometry y="56" width="160" height="30" as="geometry" />
        </mxCell>
        <mxCell id="TI52GT8X87rSwYOpcyu7-51" value="" style="edgeStyle=entityRelationEdgeStyle;fontSize=12;html=1;endArrow=ERmany;rounded=0;entryX=1;entryY=0.5;entryDx=0;entryDy=0;exitX=0;exitY=0.5;exitDx=0;exitDy=0;" edge="1" parent="1" source="TI52GT8X87rSwYOpcyu7-36" target="TI52GT8X87rSwYOpcyu7-49">
          <mxGeometry width="100" height="100" relative="1" as="geometry">
            <mxPoint x="830" y="421" as="sourcePoint" />
            <mxPoint x="910" y="452" as="targetPoint" />
          </mxGeometry>
        </mxCell>
        <mxCell id="TI52GT8X87rSwYOpcyu7-52" value="" style="edgeStyle=entityRelationEdgeStyle;fontSize=12;html=1;endArrow=ERmany;rounded=0;exitX=1;exitY=0.5;exitDx=0;exitDy=0;entryX=0;entryY=0.5;entryDx=0;entryDy=0;" edge="1" parent="1" source="TI52GT8X87rSwYOpcyu7-47" target="TI52GT8X87rSwYOpcyu7-50">
          <mxGeometry width="100" height="100" relative="1" as="geometry">
            <mxPoint x="1050" y="450" as="sourcePoint" />
            <mxPoint x="900" y="603" as="targetPoint" />
          </mxGeometry>
        </mxCell>
        <mxCell id="TI52GT8X87rSwYOpcyu7-53" value="User space album relation" style="swimlane;fontStyle=0;childLayout=stackLayout;horizontal=1;startSize=26;horizontalStack=0;resizeParent=1;resizeParentMax=0;resizeLast=0;collapsible=1;marginBottom=0;align=center;fontSize=14;" vertex="1" parent="1">
          <mxGeometry x="190" y="120" width="180" height="86" as="geometry" />
        </mxCell>
        <mxCell id="TI52GT8X87rSwYOpcyu7-54" value="User space id&lt;br&gt;" style="text;strokeColor=none;fillColor=none;spacingLeft=4;spacingRight=4;overflow=hidden;rotatable=0;points=[[0,0.5],[1,0.5]];portConstraint=eastwest;fontSize=12;whiteSpace=wrap;html=1;" vertex="1" parent="TI52GT8X87rSwYOpcyu7-53">
          <mxGeometry y="26" width="180" height="30" as="geometry" />
        </mxCell>
        <mxCell id="TI52GT8X87rSwYOpcyu7-55" value="Album id" style="text;strokeColor=none;fillColor=none;spacingLeft=4;spacingRight=4;overflow=hidden;rotatable=0;points=[[0,0.5],[1,0.5]];portConstraint=eastwest;fontSize=12;whiteSpace=wrap;html=1;" vertex="1" parent="TI52GT8X87rSwYOpcyu7-53">
          <mxGeometry y="56" width="180" height="30" as="geometry" />
        </mxCell>
        <mxCell id="TI52GT8X87rSwYOpcyu7-56" value="" style="edgeStyle=entityRelationEdgeStyle;fontSize=12;html=1;endArrow=ERmany;rounded=0;exitX=0;exitY=0.5;exitDx=0;exitDy=0;entryX=1;entryY=0.5;entryDx=0;entryDy=0;" edge="1" parent="1" source="TI52GT8X87rSwYOpcyu7-20" target="TI52GT8X87rSwYOpcyu7-54">
          <mxGeometry width="100" height="100" relative="1" as="geometry">
            <mxPoint x="420" y="266" as="sourcePoint" />
            <mxPoint x="770" y="458" as="targetPoint" />
          </mxGeometry>
        </mxCell>
        <mxCell id="TI52GT8X87rSwYOpcyu7-57" value="" style="edgeStyle=entityRelationEdgeStyle;fontSize=12;html=1;endArrow=ERmany;rounded=0;entryX=1;entryY=0.5;entryDx=0;entryDy=0;exitX=1;exitY=0.5;exitDx=0;exitDy=0;" edge="1" parent="1" source="TI52GT8X87rSwYOpcyu7-47" target="TI52GT8X87rSwYOpcyu7-55">
          <mxGeometry width="100" height="100" relative="1" as="geometry">
            <mxPoint x="430" y="505" as="sourcePoint" />
            <mxPoint x="490" y="270" as="targetPoint" />
            <Array as="points">
              <mxPoint x="280" y="385" />
              <mxPoint x="500" y="310" />
              <mxPoint x="500" y="310" />
              <mxPoint x="320" y="385" />
              <mxPoint x="300" y="295" />
              <mxPoint x="290" y="295" />
            </Array>
          </mxGeometry>
        </mxCell>
        <mxCell id="TI52GT8X87rSwYOpcyu7-58" value="Thread" style="swimlane;fontStyle=0;childLayout=stackLayout;horizontal=1;startSize=26;horizontalStack=0;resizeParent=1;resizeParentMax=0;resizeLast=0;collapsible=1;marginBottom=0;align=center;fontSize=14;" vertex="1" parent="1">
          <mxGeometry x="290" y="510" width="160" height="56" as="geometry" />
        </mxCell>
        <mxCell id="TI52GT8X87rSwYOpcyu7-59" value="id - uuid" style="text;strokeColor=none;fillColor=none;spacingLeft=4;spacingRight=4;overflow=hidden;rotatable=0;points=[[0,0.5],[1,0.5]];portConstraint=eastwest;fontSize=12;whiteSpace=wrap;html=1;" vertex="1" parent="TI52GT8X87rSwYOpcyu7-58">
          <mxGeometry y="26" width="160" height="30" as="geometry" />
        </mxCell>
        <mxCell id="TI52GT8X87rSwYOpcyu7-61" value="Media thread relation" style="swimlane;fontStyle=0;childLayout=stackLayout;horizontal=1;startSize=26;horizontalStack=0;resizeParent=1;resizeParentMax=0;resizeLast=0;collapsible=1;marginBottom=0;align=center;fontSize=14;fillColor=#fff2cc;strokeColor=#d6b656;" vertex="1" parent="1">
          <mxGeometry x="510" y="510" width="160" height="86" as="geometry" />
        </mxCell>
        <mxCell id="TI52GT8X87rSwYOpcyu7-62" value="Media id" style="text;strokeColor=none;fillColor=none;spacingLeft=4;spacingRight=4;overflow=hidden;rotatable=0;points=[[0,0.5],[1,0.5]];portConstraint=eastwest;fontSize=12;whiteSpace=wrap;html=1;" vertex="1" parent="TI52GT8X87rSwYOpcyu7-61">
          <mxGeometry y="26" width="160" height="30" as="geometry" />
        </mxCell>
        <mxCell id="TI52GT8X87rSwYOpcyu7-63" value="Thread id" style="text;strokeColor=none;fillColor=none;spacingLeft=4;spacingRight=4;overflow=hidden;rotatable=0;points=[[0,0.5],[1,0.5]];portConstraint=eastwest;fontSize=12;whiteSpace=wrap;html=1;" vertex="1" parent="TI52GT8X87rSwYOpcyu7-61">
          <mxGeometry y="56" width="160" height="30" as="geometry" />
        </mxCell>
        <mxCell id="TI52GT8X87rSwYOpcyu7-67" value="" style="edgeStyle=entityRelationEdgeStyle;fontSize=12;html=1;endArrow=ERmandOne;startArrow=ERmandOne;rounded=0;entryX=0.018;entryY=1.026;entryDx=0;entryDy=0;exitX=1;exitY=0.5;exitDx=0;exitDy=0;entryPerimeter=0;" edge="1" parent="1" source="TI52GT8X87rSwYOpcyu7-62" target="TI52GT8X87rSwYOpcyu7-36">
          <mxGeometry width="100" height="100" relative="1" as="geometry">
            <mxPoint x="560" y="570" as="sourcePoint" />
            <mxPoint x="660" y="470" as="targetPoint" />
          </mxGeometry>
        </mxCell>
        <mxCell id="TI52GT8X87rSwYOpcyu7-68" value="" style="edgeStyle=entityRelationEdgeStyle;fontSize=12;html=1;endArrow=ERmandOne;startArrow=ERmandOne;rounded=0;entryX=0;entryY=0.5;entryDx=0;entryDy=0;exitX=1;exitY=0.5;exitDx=0;exitDy=0;" edge="1" parent="1" source="TI52GT8X87rSwYOpcyu7-59" target="TI52GT8X87rSwYOpcyu7-63">
          <mxGeometry width="100" height="100" relative="1" as="geometry">
            <mxPoint x="390" y="714" as="sourcePoint" />
            <mxPoint x="443" y="650" as="targetPoint" />
            <Array as="points">
              <mxPoint x="120" y="813" />
            </Array>
          </mxGeometry>
        </mxCell>
        <mxCell id="TI52GT8X87rSwYOpcyu7-69" value="Thread post" style="swimlane;fontStyle=0;childLayout=stackLayout;horizontal=1;startSize=26;horizontalStack=0;resizeParent=1;resizeParentMax=0;resizeLast=0;collapsible=1;marginBottom=0;align=center;fontSize=14;" vertex="1" parent="1">
          <mxGeometry x="90" y="510" width="160" height="146" as="geometry" />
        </mxCell>
        <mxCell id="TI52GT8X87rSwYOpcyu7-70" value="id - uuid" style="text;strokeColor=none;fillColor=none;spacingLeft=4;spacingRight=4;overflow=hidden;rotatable=0;points=[[0,0.5],[1,0.5]];portConstraint=eastwest;fontSize=12;whiteSpace=wrap;html=1;" vertex="1" parent="TI52GT8X87rSwYOpcyu7-69">
          <mxGeometry y="26" width="160" height="30" as="geometry" />
        </mxCell>
        <mxCell id="TI52GT8X87rSwYOpcyu7-72" value="Thread id" style="text;strokeColor=none;fillColor=none;spacingLeft=4;spacingRight=4;overflow=hidden;rotatable=0;points=[[0,0.5],[1,0.5]];portConstraint=eastwest;fontSize=12;whiteSpace=wrap;html=1;" vertex="1" parent="TI52GT8X87rSwYOpcyu7-69">
          <mxGeometry y="56" width="160" height="30" as="geometry" />
        </mxCell>
        <mxCell id="TI52GT8X87rSwYOpcyu7-73" value="Content - text" style="text;strokeColor=none;fillColor=none;spacingLeft=4;spacingRight=4;overflow=hidden;rotatable=0;points=[[0,0.5],[1,0.5]];portConstraint=eastwest;fontSize=12;whiteSpace=wrap;html=1;" vertex="1" parent="TI52GT8X87rSwYOpcyu7-69">
          <mxGeometry y="86" width="160" height="30" as="geometry" />
        </mxCell>
        <mxCell id="TI52GT8X87rSwYOpcyu7-74" value="Created at" style="text;strokeColor=none;fillColor=none;spacingLeft=4;spacingRight=4;overflow=hidden;rotatable=0;points=[[0,0.5],[1,0.5]];portConstraint=eastwest;fontSize=12;whiteSpace=wrap;html=1;" vertex="1" parent="TI52GT8X87rSwYOpcyu7-69">
          <mxGeometry y="116" width="160" height="30" as="geometry" />
        </mxCell>
        <mxCell id="TI52GT8X87rSwYOpcyu7-71" value="" style="edgeStyle=entityRelationEdgeStyle;fontSize=12;html=1;endArrow=ERmany;rounded=0;entryX=1;entryY=0.5;entryDx=0;entryDy=0;exitX=0;exitY=0.5;exitDx=0;exitDy=0;" edge="1" parent="1" source="TI52GT8X87rSwYOpcyu7-59" target="TI52GT8X87rSwYOpcyu7-70">
          <mxGeometry width="100" height="100" relative="1" as="geometry">
            <mxPoint x="380" y="590" as="sourcePoint" />
            <mxPoint x="220" y="720" as="targetPoint" />
            <Array as="points">
              <mxPoint x="270" y="600" />
            </Array>
          </mxGeometry>
        </mxCell>
      </root>
    </mxGraphModel>
  </diagram>
  <diagram id="b7baOWwbE4pzvD4GS0TY" name="Wireframe">
    <mxGraphModel dx="4604" dy="3474" grid="1" gridSize="10" guides="1" tooltips="1" connect="1" arrows="1" fold="1" page="1" pageScale="1" pageWidth="850" pageHeight="1100" math="0" shadow="0">
      <root>
        <mxCell id="0" />
        <mxCell id="1" parent="0" />
        <mxCell id="3gcf0JgR6cjeALGf9hCr-3" value="" style="group" vertex="1" connectable="0" parent="1">
          <mxGeometry x="200" y="200" width="280" height="430" as="geometry" />
        </mxCell>
        <mxCell id="3gcf0JgR6cjeALGf9hCr-1" value="Dashboard kind of page&lt;br&gt;- User&#39;s activities&lt;br&gt;- User space activities" style="rounded=0;whiteSpace=wrap;html=1;align=left;" vertex="1" parent="3gcf0JgR6cjeALGf9hCr-3">
          <mxGeometry width="280" height="430" as="geometry" />
        </mxCell>
        <mxCell id="3gcf0JgR6cjeALGf9hCr-2" value="Top" style="rounded=0;whiteSpace=wrap;html=1;" vertex="1" parent="3gcf0JgR6cjeALGf9hCr-3">
          <mxGeometry width="120" height="60" as="geometry" />
        </mxCell>
        <mxCell id="3gcf0JgR6cjeALGf9hCr-4" value="" style="group" vertex="1" connectable="0" parent="1">
          <mxGeometry x="-765" y="-640" width="280" height="430" as="geometry" />
        </mxCell>
        <mxCell id="3gcf0JgR6cjeALGf9hCr-5" value="Unauthorized user will be sent here&lt;br&gt;Has link to sign up page" style="rounded=0;whiteSpace=wrap;html=1;align=left;" vertex="1" parent="3gcf0JgR6cjeALGf9hCr-4">
          <mxGeometry width="280" height="430" as="geometry" />
        </mxCell>
        <mxCell id="3gcf0JgR6cjeALGf9hCr-6" value="Landing page" style="rounded=0;whiteSpace=wrap;html=1;" vertex="1" parent="3gcf0JgR6cjeALGf9hCr-4">
          <mxGeometry width="120" height="60" as="geometry" />
        </mxCell>
        <mxCell id="3gcf0JgR6cjeALGf9hCr-7" value="" style="group" vertex="1" connectable="0" parent="1">
          <mxGeometry x="640" y="200" width="280" height="430" as="geometry" />
        </mxCell>
        <mxCell id="3gcf0JgR6cjeALGf9hCr-8" value="List of albums will be shown&lt;br&gt;- name&lt;br&gt;- latest media thumbnail&lt;br&gt;&lt;br&gt;Has link to create new album" style="rounded=0;whiteSpace=wrap;html=1;align=left;" vertex="1" parent="3gcf0JgR6cjeALGf9hCr-7">
          <mxGeometry width="280" height="430" as="geometry" />
        </mxCell>
        <mxCell id="3gcf0JgR6cjeALGf9hCr-9" value="Albums" style="rounded=0;whiteSpace=wrap;html=1;" vertex="1" parent="3gcf0JgR6cjeALGf9hCr-7">
          <mxGeometry width="120" height="60" as="geometry" />
        </mxCell>
        <mxCell id="3gcf0JgR6cjeALGf9hCr-10" value="" style="group" vertex="1" connectable="0" parent="1">
          <mxGeometry x="1080" y="200" width="280" height="430" as="geometry" />
        </mxCell>
        <mxCell id="3gcf0JgR6cjeALGf9hCr-11" value="Grid of media will be shown" style="rounded=0;whiteSpace=wrap;html=1;align=left;" vertex="1" parent="3gcf0JgR6cjeALGf9hCr-10">
          <mxGeometry width="280" height="430" as="geometry" />
        </mxCell>
        <mxCell id="3gcf0JgR6cjeALGf9hCr-12" value="Album" style="rounded=0;whiteSpace=wrap;html=1;" vertex="1" parent="3gcf0JgR6cjeALGf9hCr-10">
          <mxGeometry width="120" height="60" as="geometry" />
        </mxCell>
        <mxCell id="3gcf0JgR6cjeALGf9hCr-13" value="" style="group" vertex="1" connectable="0" parent="1">
          <mxGeometry x="1470" y="750" width="280" height="430" as="geometry" />
        </mxCell>
        <mxCell id="3gcf0JgR6cjeALGf9hCr-14" value="Media will be displayed&lt;br&gt;Has menu:&lt;br&gt;- Link the media to album&lt;br&gt;- Open thread&lt;br&gt;&lt;br&gt;Thread is provided as drawer." style="rounded=0;whiteSpace=wrap;html=1;align=left;" vertex="1" parent="3gcf0JgR6cjeALGf9hCr-13">
          <mxGeometry width="280" height="430" as="geometry" />
        </mxCell>
        <mxCell id="3gcf0JgR6cjeALGf9hCr-15" value="Media detail" style="rounded=0;whiteSpace=wrap;html=1;" vertex="1" parent="3gcf0JgR6cjeALGf9hCr-13">
          <mxGeometry width="120" height="60" as="geometry" />
        </mxCell>
        <mxCell id="3gcf0JgR6cjeALGf9hCr-16" style="edgeStyle=orthogonalEdgeStyle;rounded=0;orthogonalLoop=1;jettySize=auto;html=1;entryX=0;entryY=0.5;entryDx=0;entryDy=0;" edge="1" parent="1" source="3gcf0JgR6cjeALGf9hCr-1" target="3gcf0JgR6cjeALGf9hCr-8">
          <mxGeometry relative="1" as="geometry" />
        </mxCell>
        <mxCell id="3gcf0JgR6cjeALGf9hCr-17" style="edgeStyle=orthogonalEdgeStyle;rounded=0;orthogonalLoop=1;jettySize=auto;html=1;entryX=0;entryY=0.5;entryDx=0;entryDy=0;" edge="1" parent="1" source="3gcf0JgR6cjeALGf9hCr-8" target="3gcf0JgR6cjeALGf9hCr-11">
          <mxGeometry relative="1" as="geometry" />
        </mxCell>
        <mxCell id="3gcf0JgR6cjeALGf9hCr-18" style="edgeStyle=orthogonalEdgeStyle;rounded=0;orthogonalLoop=1;jettySize=auto;html=1;entryX=0.5;entryY=0;entryDx=0;entryDy=0;" edge="1" parent="1" source="3gcf0JgR6cjeALGf9hCr-11" target="3gcf0JgR6cjeALGf9hCr-14">
          <mxGeometry relative="1" as="geometry" />
        </mxCell>
        <mxCell id="3gcf0JgR6cjeALGf9hCr-19" value="" style="group" vertex="1" connectable="0" parent="1">
          <mxGeometry x="1080" y="-320" width="280" height="430" as="geometry" />
        </mxCell>
        <mxCell id="3gcf0JgR6cjeALGf9hCr-20" value="Form to create new album" style="rounded=0;whiteSpace=wrap;html=1;align=left;" vertex="1" parent="3gcf0JgR6cjeALGf9hCr-19">
          <mxGeometry width="280" height="430" as="geometry" />
        </mxCell>
        <mxCell id="3gcf0JgR6cjeALGf9hCr-21" value="Create album" style="rounded=0;whiteSpace=wrap;html=1;" vertex="1" parent="3gcf0JgR6cjeALGf9hCr-19">
          <mxGeometry width="120" height="60" as="geometry" />
        </mxCell>
        <mxCell id="3gcf0JgR6cjeALGf9hCr-22" style="edgeStyle=orthogonalEdgeStyle;rounded=0;orthogonalLoop=1;jettySize=auto;html=1;entryX=0;entryY=0.5;entryDx=0;entryDy=0;" edge="1" parent="1" source="3gcf0JgR6cjeALGf9hCr-8" target="3gcf0JgR6cjeALGf9hCr-20">
          <mxGeometry relative="1" as="geometry" />
        </mxCell>
        <mxCell id="3gcf0JgR6cjeALGf9hCr-23" value="" style="group" vertex="1" connectable="0" parent="1">
          <mxGeometry x="-365" y="-640" width="280" height="430" as="geometry" />
        </mxCell>
        <mxCell id="3gcf0JgR6cjeALGf9hCr-24" value="Dashboard kind of page&lt;br&gt;- User&#39;s activities&lt;br&gt;- User space activities" style="rounded=0;whiteSpace=wrap;html=1;align=left;" vertex="1" parent="3gcf0JgR6cjeALGf9hCr-23">
          <mxGeometry width="280" height="430" as="geometry" />
        </mxCell>
        <mxCell id="3gcf0JgR6cjeALGf9hCr-25" value="Sign up page" style="rounded=0;whiteSpace=wrap;html=1;" vertex="1" parent="3gcf0JgR6cjeALGf9hCr-23">
          <mxGeometry width="120" height="60" as="geometry" />
        </mxCell>
        <mxCell id="3gcf0JgR6cjeALGf9hCr-26" style="edgeStyle=orthogonalEdgeStyle;rounded=0;orthogonalLoop=1;jettySize=auto;html=1;entryX=0;entryY=0.5;entryDx=0;entryDy=0;" edge="1" parent="1" source="3gcf0JgR6cjeALGf9hCr-5" target="3gcf0JgR6cjeALGf9hCr-24">
          <mxGeometry relative="1" as="geometry" />
        </mxCell>
        <mxCell id="3gcf0JgR6cjeALGf9hCr-27" style="edgeStyle=orthogonalEdgeStyle;rounded=0;orthogonalLoop=1;jettySize=auto;html=1;entryX=0.5;entryY=0;entryDx=0;entryDy=0;" edge="1" parent="1" source="3gcf0JgR6cjeALGf9hCr-24" target="3gcf0JgR6cjeALGf9hCr-1">
          <mxGeometry relative="1" as="geometry" />
        </mxCell>
        <mxCell id="3gcf0JgR6cjeALGf9hCr-28" value="" style="group" vertex="1" connectable="0" parent="1">
          <mxGeometry x="-370" y="-120" width="280" height="430" as="geometry" />
        </mxCell>
        <mxCell id="3gcf0JgR6cjeALGf9hCr-29" value="User can sign up via invitation" style="rounded=0;whiteSpace=wrap;html=1;align=left;" vertex="1" parent="3gcf0JgR6cjeALGf9hCr-28">
          <mxGeometry width="280" height="430" as="geometry" />
        </mxCell>
        <mxCell id="3gcf0JgR6cjeALGf9hCr-30" value="Invitation page" style="rounded=0;whiteSpace=wrap;html=1;" vertex="1" parent="3gcf0JgR6cjeALGf9hCr-28">
          <mxGeometry width="120" height="60" as="geometry" />
        </mxCell>
        <mxCell id="3gcf0JgR6cjeALGf9hCr-31" style="edgeStyle=orthogonalEdgeStyle;rounded=0;orthogonalLoop=1;jettySize=auto;html=1;entryX=0;entryY=0.5;entryDx=0;entryDy=0;" edge="1" parent="1" source="3gcf0JgR6cjeALGf9hCr-29" target="3gcf0JgR6cjeALGf9hCr-1">
          <mxGeometry relative="1" as="geometry" />
        </mxCell>
        <mxCell id="3gcf0JgR6cjeALGf9hCr-32" value="" style="group" vertex="1" connectable="0" parent="1">
          <mxGeometry x="640" y="2010" width="280" height="430" as="geometry" />
        </mxCell>
        <mxCell id="3gcf0JgR6cjeALGf9hCr-33" value="User can see list of users belonging to user space" style="rounded=0;whiteSpace=wrap;html=1;align=left;" vertex="1" parent="3gcf0JgR6cjeALGf9hCr-32">
          <mxGeometry width="280" height="430" as="geometry" />
        </mxCell>
        <mxCell id="3gcf0JgR6cjeALGf9hCr-34" value="User space page" style="rounded=0;whiteSpace=wrap;html=1;" vertex="1" parent="3gcf0JgR6cjeALGf9hCr-32">
          <mxGeometry width="120" height="60" as="geometry" />
        </mxCell>
        <mxCell id="3gcf0JgR6cjeALGf9hCr-35" style="edgeStyle=orthogonalEdgeStyle;rounded=0;orthogonalLoop=1;jettySize=auto;html=1;entryX=0;entryY=0.5;entryDx=0;entryDy=0;" edge="1" parent="1" source="3gcf0JgR6cjeALGf9hCr-1" target="3gcf0JgR6cjeALGf9hCr-33">
          <mxGeometry relative="1" as="geometry" />
        </mxCell>
        <mxCell id="3gcf0JgR6cjeALGf9hCr-36" value="" style="group" vertex="1" connectable="0" parent="1">
          <mxGeometry x="640" y="1320" width="280" height="430" as="geometry" />
        </mxCell>
        <mxCell id="3gcf0JgR6cjeALGf9hCr-37" value="User can view which date has media" style="rounded=0;whiteSpace=wrap;html=1;align=left;" vertex="1" parent="3gcf0JgR6cjeALGf9hCr-36">
          <mxGeometry width="280" height="430" as="geometry" />
        </mxCell>
        <mxCell id="3gcf0JgR6cjeALGf9hCr-38" value="Calendar page" style="rounded=0;whiteSpace=wrap;html=1;" vertex="1" parent="3gcf0JgR6cjeALGf9hCr-36">
          <mxGeometry width="120" height="60" as="geometry" />
        </mxCell>
        <mxCell id="3gcf0JgR6cjeALGf9hCr-39" style="edgeStyle=orthogonalEdgeStyle;rounded=0;orthogonalLoop=1;jettySize=auto;html=1;entryX=0;entryY=0.5;entryDx=0;entryDy=0;" edge="1" parent="1" source="3gcf0JgR6cjeALGf9hCr-1" target="3gcf0JgR6cjeALGf9hCr-37">
          <mxGeometry relative="1" as="geometry" />
        </mxCell>
        <mxCell id="3gcf0JgR6cjeALGf9hCr-40" value="" style="group" vertex="1" connectable="0" parent="1">
          <mxGeometry x="1080" y="1320" width="280" height="430" as="geometry" />
        </mxCell>
        <mxCell id="3gcf0JgR6cjeALGf9hCr-41" value="User can view grid of media for the date" style="rounded=0;whiteSpace=wrap;html=1;align=left;" vertex="1" parent="3gcf0JgR6cjeALGf9hCr-40">
          <mxGeometry width="280" height="430" as="geometry" />
        </mxCell>
        <mxCell id="3gcf0JgR6cjeALGf9hCr-42" value="Date detail page" style="rounded=0;whiteSpace=wrap;html=1;" vertex="1" parent="3gcf0JgR6cjeALGf9hCr-40">
          <mxGeometry width="120" height="60" as="geometry" />
        </mxCell>
        <mxCell id="3gcf0JgR6cjeALGf9hCr-43" style="edgeStyle=orthogonalEdgeStyle;rounded=0;orthogonalLoop=1;jettySize=auto;html=1;entryX=0;entryY=0.5;entryDx=0;entryDy=0;" edge="1" parent="1" source="3gcf0JgR6cjeALGf9hCr-37" target="3gcf0JgR6cjeALGf9hCr-41">
          <mxGeometry relative="1" as="geometry" />
        </mxCell>
        <mxCell id="3gcf0JgR6cjeALGf9hCr-44" style="edgeStyle=orthogonalEdgeStyle;rounded=0;orthogonalLoop=1;jettySize=auto;html=1;entryX=0.5;entryY=1;entryDx=0;entryDy=0;" edge="1" parent="1" source="3gcf0JgR6cjeALGf9hCr-41" target="3gcf0JgR6cjeALGf9hCr-14">
          <mxGeometry relative="1" as="geometry" />
        </mxCell>
      </root>
    </mxGraphModel>
  </diagram>
</mxfile>
